HIERARCHY
ROOT Hips
{
	OFFSET 0.000000 0.000000 0.000000
	CHANNELS 6 Xposition Yposition Zposition Xrotation Yrotation Zrotation
	JOINT LeftUpLeg_virtual
	{
		OFFSET 0.000000 0.000000 0.000000
		CHANNELS 3 Xrotation Yrotation Zrotation
		JOINT LeftUpLeg
		{
			OFFSET 10.205400 -3.823500 0.155100
			CHANNELS 3 Xrotation Yrotation Zrotation
			JOINT LeftLeg
			{
				OFFSET 0.708757 -12.982077 0.567790
				CHANNELS 3 Xrotation Yrotation Zrotation
				JOINT LeftFoot
				{
					OFFSET -0.708756 -10.717838 -2.184338
					CHANNELS 3 Xrotation Yrotation Zrotation
					JOINT LeftToeBase
					{
						OFFSET 0.108149 -7.191104 7.560241
						CHANNELS 3 Xrotation Yrotation Zrotation
						JOINT LeftToe_End
						{
							OFFSET 0.070230 0.081724 4.490308
							CHANNELS 3 Xrotation Yrotation Zrotation
							End Site
							{
								OFFSET 0 0 0
							}
						}
					}
				}
			}
		}
	}
	JOINT RightUpLeg_virtual
	{
		OFFSET 0.000000 0.000000 0.000000
		CHANNELS 3 Xrotation Yrotation Zrotation
		JOINT RightUpLeg
		{
			OFFSET -10.205400 -3.823500 0.005500
			CHANNELS 3 Xrotation Yrotation Zrotation
			JOINT RightLeg
			{
				OFFSET -0.708756 -12.982134 0.610632
				CHANNELS 3 Xrotation Yrotation Zrotation
				JOINT RightFoot
				{
					OFFSET 0.708754 -10.717769 -1.945823
					CHANNELS 3 Xrotation Yrotation Zrotation
					JOINT RightToeBase
					{
						OFFSET -0.108140 -7.191069 7.372968
						CHANNELS 3 Xrotation Yrotation Zrotation
						JOINT RightToe_End
						{
							OFFSET -0.070227 0.081735 4.479403
							CHANNELS 3 Xrotation Yrotation Zrotation
							End Site
							{
								OFFSET 0 0 0
							}
						}
					}
				}
			}
		}
	}
	JOINT Spine_virtual
	{
		OFFSET 0.000000 0.000000 0.000000
		CHANNELS 3 Xrotation Yrotation Zrotation
		JOINT Spine
		{
			OFFSET 0.000000 6.876099 0.125700
			CHANNELS 3 Xrotation Yrotation Zrotation
			JOINT Spine1
			{
				OFFSET 0.000000 5.730043 0.104720
				CHANNELS 3 Xrotation Yrotation Zrotation
				JOINT Spine1_split
				{
					OFFSET 0.000000 5.730043 0.104720
					CHANNELS 3 Xrotation Yrotation Zrotation
					JOINT Spine2
					{
						OFFSET 0.000000 5.730043 0.104720
						CHANNELS 3 Xrotation Yrotation Zrotation
						JOINT Neck_virtual
						{
							OFFSET 0.000000 0.000000 0.000000
							CHANNELS 3 Xrotation Yrotation Zrotation
							JOINT Neck
							{
								OFFSET 0.000000 10.314075 0.188496
								CHANNELS 3 Xrotation Yrotation Zrotation
								JOINT Head
								{
									OFFSET 0.000000 7.643700 -2.377400
									CHANNELS 3 Xrotation Yrotation Zrotation
									JOINT HeadTop_End
									{
										OFFSET 0.000000 43.788605 -13.619600
										CHANNELS 3 Xrotation Yrotation Zrotation
										End Site
										{
											OFFSET 0 0 0
										}
									}
								}
							}
						}
						JOINT LeftShoulder_virtual
						{
							OFFSET 0.000000 0.000000 0.000000
							CHANNELS 3 Xrotation Yrotation Zrotation
							JOINT LeftShoulder
							{
								OFFSET 2.196100 4.412489 0.087492
								CHANNELS 3 Xrotation Yrotation Zrotation
								JOINT LeftShoulder_split
								{
									OFFSET 2.196100 4.412489 0.087492
									CHANNELS 3 Xrotation Yrotation Zrotation
									JOINT LeftArm
									{
										OFFSET 8.771219 -2.981674 -0.026999
										CHANNELS 3 Xrotation Yrotation Zrotation
										JOINT LeftForeArm
										{
											OFFSET 8.512804 0.000000 -0.000000
											CHANNELS 3 Xrotation Yrotation Zrotation
											JOINT LeftHand
											{
												OFFSET 18.484802 0.000000 -0.000000
												CHANNELS 3 Xrotation Yrotation Zrotation
												End Site
												{
													OFFSET 0 0 0
												}
											}
										}
									}
								}
							}
						}
						JOINT RightShoulder_virtual
						{
							OFFSET 0.000000 0.000000 0.000000
							CHANNELS 3 Xrotation Yrotation Zrotation
							JOINT RightShoulder
							{
								OFFSET -2.196100 4.412496 0.070690
								CHANNELS 3 Xrotation Yrotation Zrotation
								JOINT RightShoulder_split
								{
									OFFSET -2.196100 4.412496 0.070690
									CHANNELS 3 Xrotation Yrotation Zrotation
									JOINT RightArm
									{
										OFFSET -8.771282 -2.981682 -0.094208
										CHANNELS 3 Xrotation Yrotation Zrotation
										JOINT RightForeArm
										{
											OFFSET -8.494598 0.000000 0.000000
											CHANNELS 3 Xrotation Yrotation Zrotation
											JOINT RightHand
											{
												OFFSET -18.483803 0.000000 0.000001
												CHANNELS 3 Xrotation Yrotation Zrotation
												End Site
												{
													OFFSET 0 0 0
												}
											}
										}
									}
								}
							}
						}
					}
				}
			}
		}
	}
}
MOTION
Frames: 5
Frame Time: 0.03333333
0.055686 33.741280 0.493214 0.000000 0.000000 0.000000 -3.430362 2.388794 2.744294 4.181303 7.929691 5.060774 17.579700 3.922991 -2.313934 -21.811639 2.227953 -6.096422 2.254558 0.415533 -0.785641 0.000000 0.000000 0.000000 -3.614359 2.771828 2.748713 8.148128 -10.909579 -14.257257 10.710361 -4.361542 -0.422696 -15.861890 -2.772505 8.799611 -3.730140 -0.729187 -0.998382 0.000000 0.000000 0.000000 -2.426877 2.660039 2.283982 3.479722 -0.545382 -0.247196 1.380930 -0.448050 0.758181 0.923812 0.073491 0.173054 0.000000 0.000000 0.000000 0.941327 -0.064855 0.180517 0.292111 0.608901 -1.024753 -4.517380 -5.010007 -1.656258 0.000000 0.000000 0.000000 1.029294 -0.131401 0.378352 0.949338 -2.201447 -16.080799 -0.144294 -0.454389 -0.611098 4.445252 -8.377301 -37.357446 0.831619 -64.958056 0.867952 0.000000 0.000000 0.000000 1.057798 -0.014018 0.441934 1.184568 4.701427 20.356064 1.410149 1.323765 -1.424482 -2.872993 5.654527 57.679636 0.408400 18.745862 0.416956 0.000000 0.000000 0.000000 
0.039613 33.740143 0.513645 0.000000 0.000000 0.000000 -3.500507 2.382075 2.785979 4.242711 8.086068 5.026978 17.517405 3.891217 -2.277882 -21.727546 2.225149 -6.054957 2.269282 0.414005 -0.783339 0.000000 0.000000 0.000000 -3.642029 2.756904 2.780127 8.172482 -10.875355 -14.293923 10.803916 -4.331273 -0.400996 -15.885374 -2.769701 8.886774 -3.729182 -0.726625 -1.025576 0.000000 0.000000 0.000000 -2.492915 2.720435 2.304713 3.474004 -0.552914 -0.252233 1.360198 -0.433427 0.782342 0.981103 -0.005472 0.203457 0.000000 0.000000 0.000000 0.974151 -0.059264 0.220179 0.261946 0.700158 -1.159842 -4.369925 -5.026415 -1.620905 0.000000 0.000000 0.000000 0.979360 -0.111359 0.378384 0.984666 -2.167532 -16.066427 -0.248180 -0.663222 -0.610021 4.550012 -8.388053 -37.360817 0.842157 -64.897097 0.879832 0.000000 0.000000 0.000000 1.064290 0.003416 0.472863 1.224659 4.505665 20.227798 1.041569 1.150304 -1.355833 -2.960174 5.917391 57.345387 0.477597 18.251406 0.471383 0.000000 0.000000 0.000000 
0.034107 33.740578 0.534569 0.000000 0.000000 0.000000 -3.555690 2.529404 2.859569 4.349719 8.221489 4.905317 17.350175 3.855427 -2.231574 -21.618811 2.199450 -5.923791 2.276251 0.413349 -0.784285 0.000000 0.000000 0.000000 -3.689859 2.875503 2.846666 8.271787 -10.845717 -14.357317 10.916417 -4.374896 -0.391589 -15.926563 -2.808308 8.978219 -3.718924 -0.732366 -1.020111 0.000000 0.000000 0.000000 -2.569225 2.864243 2.353286 3.437683 -0.557019 -0.265073 1.330944 -0.423022 0.794127 0.965916 -0.023485 0.230870 0.000000 0.000000 0.000000 0.985831 -0.061521 0.248668 0.275819 0.887847 -1.263692 -4.042212 -4.928805 -1.548452 0.000000 0.000000 0.000000 0.943486 -0.092473 0.362850 1.032092 -2.102217 -16.011323 -0.301664 -0.836450 -0.665100 4.628757 -8.372241 -37.402710 0.884605 -64.857871 0.954120 0.000000 0.000000 0.000000 1.074119 0.015308 0.486269 1.300047 4.343197 19.861287 0.730016 1.086757 -1.263229 -3.167768 6.121060 57.238922 0.533989 17.688990 0.505774 0.000000 0.000000 0.000000 
0.041190 33.739811 0.556271 0.000000 0.000000 0.000000 -3.605269 2.799032 2.946141 4.474845 8.321189 4.716445 17.142487 3.796804 -2.177314 -21.515979 2.154946 -5.726860 2.280193 0.413643 -0.789721 0.000000 0.000000 0.000000 -3.753413 3.112497 2.931599 8.437676 -10.830317 -14.438511 11.018236 -4.494245 -0.397091 -15.989317 -2.877316 9.075166 -3.706346 -0.740526 -0.993374 0.000000 0.000000 0.000000 -2.655292 3.059351 2.418546 3.379188 -0.554232 -0.275721 1.293272 -0.416988 0.792770 0.902223 0.013780 0.238056 0.000000 0.000000 0.000000 0.970878 -0.071175 0.266913 0.330934 1.164825 -1.333813 -3.572146 -4.737152 -1.438530 0.000000 0.000000 0.000000 0.916094 -0.079433 0.338408 1.084460 -2.022013 -15.922865 -0.337400 -0.942481 -0.725131 4.659249 -8.329947 -37.477337 0.948399 -64.841417 1.074390 0.000000 0.000000 0.000000 1.084272 0.022285 0.482129 1.398881 4.220354 19.291627 0.523403 1.078895 -1.181896 -3.393193 6.245580 57.367421 0.569857 17.258589 0.510677 0.000000 0.000000 0.000000 
0.056938 33.735603 0.572691 0.000000 0.000000 0.000000 -3.653855 3.167274 3.032714 4.583313 8.375776 4.487453 16.953073 3.701771 -2.116560 -21.451966 2.097541 -5.489353 2.289598 0.416114 -0.804614 0.000000 0.000000 0.000000 -3.825339 3.447823 3.018153 8.643067 -10.835924 -14.526460 11.098677 -4.679976 -0.410074 -16.077338 -2.950412 9.190013 -3.697831 -0.744605 -0.959437 0.000000 0.000000 0.000000 -2.739118 3.291970 2.488352 3.306169 -0.539014 -0.272859 1.250465 -0.416070 0.778766 0.859347 0.053376 0.230163 0.000000 0.000000 0.000000 0.929626 -0.084586 0.275331 0.408723 1.523733 -1.383160 -3.023214 -4.517417 -1.289319 0.000000 0.000000 0.000000 0.899258 -0.076266 0.312097 1.136365 -1.936203 -15.803652 -0.411681 -0.992547 -0.794743 4.639785 -8.277695 -37.578509 1.013504 -64.846096 1.215489 0.000000 0.000000 0.000000 1.096448 0.022880 0.461665 1.516071 4.139578 18.552044 0.340861 1.042551 -1.119178 -3.450789 6.258546 57.683987 0.586537 17.322550 0.484555 0.000000 0.000000 0.000000 
